<svg width="24" height="25" viewBox="0 0 24 25" fill="none" xmlns="http://www.w3.org/2000/svg">
<path d="M22.903 9.95442V22.7605C22.903 22.9028 22.8472 23.0362 22.7528 23.1322C22.6588 23.2276 22.5347 23.2783 22.4087 23.2783H16.4764C16.3503 23.2783 16.2262 23.2276 16.1323 23.1322C16.0378 23.0362 15.982 22.9028 15.982 22.7605V18.2407C15.982 17.5839 15.7253 16.9509 15.2635 16.4818C14.8012 16.0121 14.1709 15.7454 13.5102 15.7454H10.5441C9.88348 15.7454 9.25311 16.0121 8.79081 16.4818C8.32902 16.9509 8.07232 17.5839 8.07232 18.2407V22.7605C8.07232 22.9028 8.01651 23.0362 7.92204 23.1322C7.82809 23.2276 7.704 23.2783 7.57796 23.2783H1.64567C1.51962 23.2783 1.39553 23.2276 1.30158 23.1322C1.20711 23.0362 1.15131 22.9028 1.15131 22.7605V9.95442C1.15131 9.87144 1.17036 9.79018 1.20625 9.71726C1.24211 9.6444 1.29345 9.5825 1.35502 9.53559L11.7365 1.62598C11.8221 1.56078 11.9241 1.52692 12.0272 1.52692C12.1302 1.52692 12.2322 1.56078 12.3178 1.62598L22.6993 9.53559C22.7609 9.5825 22.8122 9.64439 22.8481 9.71726C22.884 9.79019 22.903 9.87144 22.903 9.95442Z" fill="#ABADB3" stroke="#ABADB3" stroke-width="1.97742" stroke-linecap="round" stroke-linejoin="round"/>
</svg>
