<svg width="28" height="28" viewBox="0 0 28 28" fill="none" xmlns="http://www.w3.org/2000/svg">
<circle cx="13.5947" cy="13.917" r="13.5947" fill="#FF9F9F"/>
<path d="M13.6118 16.9811C13.0833 16.9811 12.6507 16.5608 12.6353 16.0325L12.3946 7.73925C12.3749 7.06163 12.9189 6.50165 13.5968 6.50165C14.273 6.50165 14.8162 7.05891 14.7991 7.73489L14.5884 16.029C14.5749 16.5587 14.1417 16.9811 13.6118 16.9811ZM13.6135 21.3322C12.9835 21.3322 12.4727 20.8215 12.4727 20.1914V20.083C12.4727 19.4529 12.9835 18.9422 13.6135 18.9422C14.2436 18.9422 14.7543 19.4529 14.7543 20.083V20.1914C14.7543 20.8215 14.2436 21.3322 13.6135 21.3322Z" fill="#FAFAFA"/>
</svg>
