<svg width="85" height="24" viewBox="0 0 85 24" fill="none" xmlns="http://www.w3.org/2000/svg">
<path d="M3.86987 17.1858V24H0V7.06472H3.86987V8.29228C4.5471 7.41545 5.58713 6.68894 7.18345 6.68894C8.85233 6.68894 10.1584 7.41545 11.0291 8.31733C11.924 9.24426 12.6738 10.7223 12.6738 12.6514C12.6738 14.5303 11.9724 16.0334 10.9324 17.0856C9.72305 18.3132 8.32022 18.6388 7.23182 18.6388C6.53041 18.6388 5.07921 18.4885 3.86987 17.1858ZM6.24017 10.096C5.58713 10.096 4.95827 10.3716 4.49873 10.8476C4.01499 11.3486 3.74894 12.0752 3.74894 12.7015C3.74894 13.3528 4.08755 14.0543 4.49873 14.4802C4.95827 14.9562 5.58713 15.2317 6.24017 15.2317C6.9174 15.2317 7.52206 14.9562 7.95742 14.4802C8.3686 14.0543 8.70721 13.3779 8.70721 12.7015C8.70721 12.0752 8.44116 11.3486 7.95742 10.8476C7.52206 10.3716 6.9174 10.096 6.24017 10.096Z" fill="#151515"/>
<path d="M13.6948 7.06472H17.5646V13.3278C17.5646 13.7787 17.6372 14.4802 18.1451 14.9562C18.5321 15.3069 19.04 15.382 19.4996 15.382C19.9833 15.382 20.4429 15.3319 20.8782 14.9061C21.362 14.405 21.4345 13.8288 21.4345 13.3278V7.06472H25.3044V14.0543C25.3044 15.0063 25.2318 16.0334 24.2644 17.0605C22.9341 18.4885 21.0717 18.6388 19.5963 18.6388C17.9758 18.6388 15.9925 18.4635 14.7106 17.0355C13.8883 16.1336 13.6948 15.1315 13.6948 14.0543V7.06472Z" fill="#151515"/>
<path d="M37.4423 7.06472L32.3873 14.9812H36.9102V18.2631H25.9053L31.0087 10.3466H26.6551V7.06472H37.4423Z" fill="#151515"/>
<path d="M48.7279 7.06472L43.6729 14.9812H48.1958V18.2631H37.1908L42.2942 10.3466H37.9406V7.06472H48.7279Z" fill="#151515"/>
<path d="M49.3229 0H53.1928V18.2631H49.3229V0Z" fill="#151515"/>
<path d="M54.609 7.06472H58.4789V18.2631H54.609V7.06472ZM54.3672 2.40501C54.3672 1.1524 55.3346 0.150313 56.544 0.150313C57.7533 0.150313 58.7208 1.1524 58.7208 2.40501C58.7208 3.65762 57.7533 4.65971 56.544 4.65971C55.3346 4.65971 54.3672 3.65762 54.3672 2.40501Z" fill="#151515"/>
<path d="M59.8951 18.2631V7.06472H63.765V8.46764C64.8292 7.01461 66.2562 6.8142 67.1995 6.8142C68.3121 6.8142 69.4973 7.08977 70.3922 8.0167C71.3113 8.96869 71.408 9.92067 71.408 11.1482V18.2631H67.5381V12.6013C67.5381 11.9499 67.5623 10.9729 67.0544 10.4217C66.6916 10.0209 66.2079 9.94572 65.8209 9.94572C65.2162 9.94572 64.7083 10.1712 64.3939 10.4718C64.0069 10.8476 63.765 11.5741 63.765 12.2505V18.2631H59.8951Z" fill="#151515"/>
<path d="M81.1301 7.06472H85V17.5616C85 19.2401 84.8549 20.7683 83.5246 22.1962C82.146 23.6493 80.332 24 78.7598 24C76.7523 24 75.0834 23.4739 73.7048 22.0209C73.076 21.3445 72.6648 20.6681 72.5197 19.691H76.8249C76.97 20.142 77.357 20.8434 78.6389 20.8434C79.2436 20.8434 79.8482 20.7182 80.3561 20.2171C81.0092 19.5908 81.1301 18.7891 81.1301 18.1378V17.0104C79.9208 18.3382 78.7598 18.4885 77.8891 18.4885C75.9058 18.4885 74.6239 17.6868 73.8983 16.9102C72.9308 15.8831 72.3987 14.3549 72.3987 12.8267C72.3987 11.0731 73.0518 9.46973 73.995 8.44259C75.0351 7.31524 76.4863 6.73904 77.9133 6.73904C78.5905 6.73904 79.9933 6.88935 81.1301 8.21712V7.06472ZM78.8324 10.071C78.1793 10.071 77.623 10.2965 77.1151 10.8225C76.5588 11.4238 76.3653 12.1002 76.3653 12.6263C76.3653 13.2777 76.6314 13.9541 77.1151 14.4551C77.623 14.9812 78.2761 15.1816 78.8566 15.1816C79.4612 15.1816 80.1385 14.9061 80.598 14.4301C81.0817 13.929 81.3236 13.2025 81.3236 12.6263C81.3236 12.0501 81.0092 11.2735 80.5496 10.7975C80.1143 10.3466 79.4854 10.071 78.8324 10.071Z" fill="#151515"/>
</svg>
