<svg width="60" height="60" viewBox="0 0 60 60" fill="none" xmlns="http://www.w3.org/2000/svg">
<path fill-rule="evenodd" clip-rule="evenodd" d="M18.9001 21.1197C18.4174 20.637 18.4174 19.8545 18.9001 19.3719C19.3827 18.8892 20.1652 18.8892 20.6479 19.3719L29.661 28.385L38.6742 19.3719C39.1568 18.8892 39.9393 18.8892 40.422 19.3719C40.9046 19.8545 40.9046 20.637 40.422 21.1197L31.4088 30.1328L40.422 39.146C40.9046 39.6286 40.9046 40.4111 40.422 40.8938C39.9393 41.3764 39.1568 41.3764 38.6742 40.8938L29.661 31.8806L20.6479 40.8938C20.1652 41.3764 19.3827 41.3764 18.9001 40.8938C18.4174 40.4111 18.4174 39.6286 18.9001 39.146L27.9132 30.1328L18.9001 21.1197Z" fill="#83858A"/>
</svg>
