<svg width="100" height="124" viewBox="0 0 100 124" fill="none" xmlns="http://www.w3.org/2000/svg">
<g filter="url(#filter0_i_1042_63427)">
<path fill-rule="evenodd" clip-rule="evenodd" d="M0.17247 13.8259C-0.496521 11.4936 0.851067 9.05762 3.18239 8.38507L31.6327 0.177602C33.964 -0.49495 36.3962 0.850582 37.0652 3.18293L38.5916 8.5045C38.837 9.36009 38.1689 10.2135 37.3137 10.4602C34.1801 11.3642 32.3707 14.6446 33.2721 17.7873C34.1735 20.9299 37.4444 22.7447 40.578 21.8408C41.4326 21.5942 42.4517 21.9624 42.697 22.8173L44.1936 28.0352C44.8626 30.3675 43.515 32.8035 41.1837 33.476L34.3169 35.457C33.5732 35.6716 33.2376 36.5386 33.4511 37.2827C34.3525 40.4254 32.543 43.7058 29.4095 44.6098C26.2759 45.5138 23.005 43.699 22.1035 40.5563C21.8903 39.8128 21.1454 39.2568 20.4022 39.4712L12.7334 41.6835C10.4021 42.3561 7.96986 41.0105 7.30087 38.6782L0.17247 13.8259Z" fill="#FFCD6B"/>
</g>
<g filter="url(#filter1_i_1042_63427)">
<path fill-rule="evenodd" clip-rule="evenodd" d="M31.8784 55.5294C31.4278 53.9582 30.2448 52.3213 28.6103 52.3213H22.1404C20.0859 52.3213 18.4204 53.9868 18.4204 56.0413V81.4074L18.4204 81.4411V103.598C18.4204 114.865 27.5547 124 38.8225 124C50.0902 124 59.2245 114.865 59.2245 103.598V98.0488C59.2245 95.9943 60.89 94.3288 62.9445 94.3288H64.5597C84.1327 94.3288 99.9997 78.4618 99.9997 58.8888V58.1239C99.9997 38.5509 84.1327 22.6838 64.5597 22.6838H60.5302C58.4757 22.6838 56.8102 24.3493 56.8102 26.4038V29.2267C56.8102 30.7443 55.3388 31.8554 53.8806 32.276C50.7471 33.18 48.9376 36.4605 49.839 39.6031C50.2534 41.0476 51.1683 42.2116 52.3404 42.96C54.352 44.2443 56.8102 46.0146 56.8102 48.4012V50.1246C56.8102 51.3378 55.8267 52.3213 54.6135 52.3213H48.1241C45.6683 52.3213 43.8599 54.9279 42.5678 57.0162C41.8232 58.2195 40.6483 59.1606 39.1843 59.5829C36.0508 60.4869 32.7798 58.6721 31.8784 55.5294Z" fill="#5085FF"/>
</g>
<path fill-rule="evenodd" clip-rule="evenodd" d="M1.16551 13.8438C0.495965 11.4968 1.85343 9.04295 4.19749 8.36303L32.4046 0.181247C34.7486 -0.498675 37.1916 0.852799 37.8612 3.19985L39.374 8.50296C39.6172 9.35531 38.9511 10.2043 38.0998 10.4513C34.9829 11.3554 33.183 14.6362 34.0796 17.7791C34.9762 20.9221 38.2298 22.7371 41.3467 21.833C42.1961 21.5866 43.2108 21.9525 43.4534 22.803L44.9365 28.002C45.6061 30.3491 44.2486 32.8029 41.9046 33.4828L35.1267 35.4488C34.3826 35.6647 34.0468 36.5316 34.2593 37.2766C35.1559 40.4196 33.356 43.7004 30.2391 44.6044C27.1222 45.5085 23.8686 43.6936 22.972 40.5506C22.76 39.8073 22.0149 39.2521 21.2725 39.4674L13.6975 41.6646C11.3534 42.3446 8.91043 40.9931 8.24088 38.646L1.16551 13.8438Z" fill="#FFCD6B"/>
<defs>
<filter id="filter0_i_1042_63427" x="0.000976562" y="0.00439453" width="47.1196" height="48.2818" filterUnits="userSpaceOnUse" color-interpolation-filters="sRGB">
<feFlood flood-opacity="0" result="BackgroundImageFix"/>
<feBlend mode="normal" in="SourceGraphic" in2="BackgroundImageFix" result="shape"/>
<feColorMatrix in="SourceAlpha" type="matrix" values="0 0 0 0 0 0 0 0 0 0 0 0 0 0 0 0 0 0 127 0" result="hardAlpha"/>
<feOffset dx="2.7553" dy="4.13295"/>
<feGaussianBlur stdDeviation="1.72206"/>
<feComposite in2="hardAlpha" operator="arithmetic" k2="-1" k3="1"/>
<feColorMatrix type="matrix" values="0 0 0 0 1 0 0 0 0 1 0 0 0 0 1 0 0 0 0.25 0"/>
<feBlend mode="normal" in2="shape" result="effect1_innerShadow_1042_63427"/>
</filter>
<filter id="filter1_i_1042_63427" x="18.4204" y="22.6838" width="84.3344" height="104.76" filterUnits="userSpaceOnUse" color-interpolation-filters="sRGB">
<feFlood flood-opacity="0" result="BackgroundImageFix"/>
<feBlend mode="normal" in="SourceGraphic" in2="BackgroundImageFix" result="shape"/>
<feColorMatrix in="SourceAlpha" type="matrix" values="0 0 0 0 0 0 0 0 0 0 0 0 0 0 0 0 0 0 127 0" result="hardAlpha"/>
<feOffset dx="2.7553" dy="4.13295"/>
<feGaussianBlur stdDeviation="1.72206"/>
<feComposite in2="hardAlpha" operator="arithmetic" k2="-1" k3="1"/>
<feColorMatrix type="matrix" values="0 0 0 0 1 0 0 0 0 1 0 0 0 0 1 0 0 0 0.25 0"/>
<feBlend mode="normal" in2="shape" result="effect1_innerShadow_1042_63427"/>
</filter>
</defs>
</svg>
