<svg width="22" height="22" viewBox="0 0 22 22" fill="none" xmlns="http://www.w3.org/2000/svg">
<path d="M15.3246 5.43787C15.3246 7.89627 13.3338 9.88704 10.8755 9.88704C8.41721 9.88704 6.42645 7.89627 6.42645 5.43787C6.42645 2.97947 8.41721 0.988693 10.8755 0.988693C13.3338 0.988693 15.3246 2.97947 15.3246 5.43787ZM0.988693 19.0325C0.988693 18.4916 1.25181 17.9446 1.85944 17.3838C2.47378 16.8168 3.37205 16.3049 4.44429 15.8753C6.59036 15.0156 9.18425 14.5834 10.8755 14.5834C12.5668 14.5834 15.1607 15.0156 17.3067 15.8753C18.379 16.3049 19.2772 16.8168 19.8916 17.3838C20.4992 17.9446 20.7623 18.4916 20.7623 19.0325V20.392C20.7623 20.5937 20.5932 20.7628 20.3916 20.7628H1.35944C1.15781 20.7628 0.988693 20.5937 0.988693 20.392V19.0325Z" fill="#5085FF" stroke="#5085FF" stroke-width="1.97739"/>
</svg>
