<svg width="30" height="30" viewBox="0 0 30 30" fill="none" xmlns="http://www.w3.org/2000/svg">
<path d="M17.9072 21.1538V21.9231C17.9072 22.7391 17.6009 23.5218 17.0558 24.0988C16.5107 24.6758 15.7714 25 15.0005 25C14.2297 25 13.4903 24.6758 12.9452 24.0988C12.4001 23.5218 12.0939 22.7391 12.0939 21.9231V21.1538M22.7976 19.588C21.6313 18.0769 20.8079 17.3077 20.8079 13.1418C20.8079 9.32692 18.9676 7.96779 17.453 7.30769C17.2518 7.22019 17.0624 7.01923 17.0011 6.80048C16.7354 5.84327 15.9906 5 15.0005 5C14.0105 5 13.2652 5.84375 13.0022 6.80144C12.9409 7.0226 12.7515 7.22019 12.5503 7.30769C11.0339 7.96875 9.19547 9.32308 9.19547 13.1418C9.19319 17.3077 8.3698 18.0769 7.20352 19.588C6.72029 20.2139 7.14357 21.1538 7.98876 21.1538H22.0169C22.8575 21.1538 23.2781 20.2111 22.7976 19.588Z" stroke="#83858A" stroke-width="2" stroke-linecap="round" stroke-linejoin="round"/>
</svg>
