<svg width="22" height="22" viewBox="0 0 22 22" fill="none" xmlns="http://www.w3.org/2000/svg">
<circle cx="11" cy="11" r="11" fill="#D1D3D9"/>
<path fill-rule="evenodd" clip-rule="evenodd" d="M6.10331 6.60213C5.96556 6.46438 5.96556 6.24105 6.10331 6.10331C6.24105 5.96556 6.46438 5.96556 6.60213 6.10331L10.9996 10.5007L15.397 6.10331C15.5347 5.96556 15.7581 5.96556 15.8958 6.10331C16.0335 6.24105 16.0335 6.46438 15.8958 6.60213L11.4984 10.9996L15.8958 15.397C16.0335 15.5347 16.0335 15.7581 15.8958 15.8958C15.7581 16.0335 15.5347 16.0335 15.397 15.8958L10.9996 11.4984L6.60213 15.8958C6.46438 16.0335 6.24105 16.0335 6.10331 15.8958C5.96556 15.7581 5.96556 15.5347 6.10331 15.397L10.5007 10.9996L6.10331 6.60213Z" fill="#F2F4F5"/>
</svg>
