<svg width="48" height="48" viewBox="0 0 48 48" fill="none" xmlns="http://www.w3.org/2000/svg">
<path fill-rule="evenodd" clip-rule="evenodd" d="M15.2929 16.7071C14.9024 16.3166 14.9024 15.6834 15.2929 15.2929C15.6834 14.9024 16.3166 14.9024 16.7071 15.2929L24 22.5858L31.2929 15.2929C31.6834 14.9024 32.3166 14.9024 32.7071 15.2929C33.0976 15.6834 33.0976 16.3166 32.7071 16.7071L25.4142 24L32.7071 31.2929C33.0976 31.6834 33.0976 32.3166 32.7071 32.7071C32.3166 33.0976 31.6834 33.0976 31.2929 32.7071L24 25.4142L16.7071 32.7071C16.3166 33.0976 15.6834 33.0976 15.2929 32.7071C14.9024 32.3166 14.9024 31.6834 15.2929 31.2929L22.5858 24L15.2929 16.7071Z" fill="#83858A"/>
</svg>
