<svg width="33" height="30" viewBox="0 0 33 30" fill="none" xmlns="http://www.w3.org/2000/svg">
<path fill-rule="evenodd" clip-rule="evenodd" d="M20.0734 3.68041C20.0734 4.40739 20.5677 5.22002 21.2946 5.22002H26.5542C27.2265 5.22002 27.7715 5.76504 27.7715 6.43736V11.6969C27.7715 12.4239 28.5842 12.9181 29.3112 12.9181C31.1333 12.9181 32.6104 14.3952 32.6104 16.2173C32.6104 18.0394 31.1333 19.5165 29.3112 19.5165C28.5842 19.5165 27.7715 20.0107 27.7715 20.7377V25.9972C27.7715 26.6695 27.2265 27.2146 26.5542 27.2146H21.2946C20.5677 27.2146 20.0734 26.4019 20.0734 25.675C20.0734 23.8529 18.5963 22.3758 16.7742 22.3758C14.9522 22.3758 13.4751 23.8529 13.4751 25.675C13.4751 26.4019 12.9808 27.2146 12.2539 27.2146H6.99431C6.322 27.2146 5.77698 26.6695 5.77698 25.9972V20.7377C5.77698 20.0107 4.96432 19.5165 4.23732 19.5165C2.41523 19.5165 0.938139 18.0394 0.938139 16.2173C0.938139 14.3952 2.41523 12.9181 4.23732 12.9181C4.96432 12.9181 5.77698 12.4239 5.77698 11.6969V6.43736C5.77698 5.76504 6.322 5.22002 6.99431 5.22002L12.2539 5.22002C12.9808 5.22002 13.4751 4.40739 13.4751 3.68041C13.4751 1.85832 14.9522 0.381226 16.7742 0.381226C18.5963 0.381226 20.0734 1.85832 20.0734 3.68041Z" fill="url(#paint0_linear_441_5883)"/>
<path d="M17.1571 18.3804C15.3865 18.3804 14.2189 17.43 14.1102 16.0287L14.1048 15.9581H15.6744L15.6798 16.0179C15.7504 16.6261 16.3098 17.0606 17.1571 17.0606C17.9935 17.0606 18.542 16.5936 18.542 15.931V15.9201C18.542 15.1706 17.9826 14.7578 17.0322 14.7578H16.136V13.5901H17.0105C17.836 13.5901 18.3682 13.1557 18.3682 12.5202V12.5093C18.3682 11.8576 17.9174 11.4557 17.1462 11.4557C16.375 11.4557 15.8591 11.8739 15.7939 12.5256L15.7884 12.5745H14.2786L14.284 12.5093C14.3981 11.1081 15.5006 10.1957 17.1462 10.1957C18.8299 10.1957 19.9161 11.0429 19.9161 12.2921V12.303C19.9161 13.2806 19.1992 13.916 18.2813 14.1061V14.1387C19.449 14.2473 20.2094 14.9208 20.2094 15.9853V15.9961C20.2094 17.4191 18.9874 18.3804 17.1571 18.3804Z" fill="white"/>
<defs>
<linearGradient id="paint0_linear_441_5883" x1="27.1557" y1="26.9695" x2="5.65129" y2="5.0943" gradientUnits="userSpaceOnUse">
<stop stop-color="#FFCD6B"/>
<stop offset="1" stop-color="#FFEBA5"/>
</linearGradient>
</defs>
</svg>
