<svg width="60" height="60" viewBox="0 0 60 60" fill="none" xmlns="http://www.w3.org/2000/svg">
<path d="M33.2544 37.5224V38.4731C33.2544 39.4816 32.8759 40.4488 32.2022 41.162C31.5285 41.8751 30.6148 42.2758 29.6621 42.2758C28.7094 42.2758 27.7957 41.8751 27.122 41.162C26.4484 40.4488 26.0699 39.4816 26.0699 38.4731V37.5224M39.2983 35.5872C37.8569 33.7197 36.8393 32.769 36.8393 27.6205C36.8393 22.9057 34.565 21.226 32.6931 20.4102C32.4444 20.3021 32.2104 20.0537 32.1346 19.7833C31.8062 18.6003 30.8857 17.5582 29.6621 17.5582C28.4385 17.5582 27.5174 18.6009 27.1925 19.7845C27.1167 20.0579 26.8826 20.3021 26.634 20.4102C24.7598 21.2272 22.4877 22.901 22.4877 27.6205C22.4849 32.769 21.4673 33.7197 20.0259 35.5872C19.4287 36.3608 19.9518 37.5224 20.9964 37.5224H38.3335C39.3724 37.5224 39.8922 36.3572 39.2983 35.5872Z" stroke="#83858A" stroke-width="2.47176" stroke-linecap="round" stroke-linejoin="round"/>
</svg>
