<svg width="122" height="120" viewBox="0 0 122 120" fill="none" xmlns="http://www.w3.org/2000/svg">
<g id="puzzle_element">
<g id="Subtract" filter="url(#filter0_di_1042_63610)">
<mask id="path-2-inside-1_1042_63610" fill="white">
<path fill-rule="evenodd" clip-rule="evenodd" d="M104.57 54.0242C103.868 56.6447 106.329 59.2088 108.95 59.9094C115.529 61.6679 119.418 68.4792 117.638 75.1227C115.857 81.7663 109.08 85.7263 102.501 83.9678C99.8805 83.2672 96.4656 84.2605 95.7632 86.881L90.7135 105.721C89.9986 108.388 87.2564 109.972 84.5886 109.259L66.0875 104.313C63.4324 103.604 62.4177 100.161 63.1292 97.5067C64.9099 90.8632 61.0203 84.0519 54.4415 82.2934C47.8627 80.5348 41.0859 84.4949 39.3052 91.1384C38.5937 93.7931 35.9927 96.2689 33.3376 95.5592L14.836 90.6136C12.1683 89.9005 10.5852 87.1601 11.3001 84.4929L16.3497 65.6539C17.052 63.0334 20.4669 62.0401 23.0878 62.7407C29.6666 64.4992 36.4434 60.5392 38.2241 53.8956C40.0048 47.2521 36.1152 40.4408 29.5364 38.6823C26.9155 37.9817 24.4541 35.4176 25.1565 32.7972L30.2063 13.9572C30.9212 11.2899 33.6634 9.70572 36.3312 10.4188L54.8326 15.3644C57.4879 16.0741 60.0889 13.5982 60.8005 10.9435C62.5812 4.29995 69.3579 0.33988 75.9367 2.09844C82.5156 3.85699 86.4052 10.6682 84.6245 17.3118C83.9129 19.9665 84.9276 23.4089 87.5828 24.1187L106.084 29.0641C108.752 29.7772 110.335 32.5175 109.62 35.1848L104.57 54.0242Z"/>
</mask>
<path fill-rule="evenodd" clip-rule="evenodd" d="M104.57 54.0242C103.868 56.6447 106.329 59.2088 108.95 59.9094C115.529 61.6679 119.418 68.4792 117.638 75.1227C115.857 81.7663 109.08 85.7263 102.501 83.9678C99.8805 83.2672 96.4656 84.2605 95.7632 86.881L90.7135 105.721C89.9986 108.388 87.2564 109.972 84.5886 109.259L66.0875 104.313C63.4324 103.604 62.4177 100.161 63.1292 97.5067C64.9099 90.8632 61.0203 84.0519 54.4415 82.2934C47.8627 80.5348 41.0859 84.4949 39.3052 91.1384C38.5937 93.7931 35.9927 96.2689 33.3376 95.5592L14.836 90.6136C12.1683 89.9005 10.5852 87.1601 11.3001 84.4929L16.3497 65.6539C17.052 63.0334 20.4669 62.0401 23.0878 62.7407C29.6666 64.4992 36.4434 60.5392 38.2241 53.8956C40.0048 47.2521 36.1152 40.4408 29.5364 38.6823C26.9155 37.9817 24.4541 35.4176 25.1565 32.7972L30.2063 13.9572C30.9212 11.2899 33.6634 9.70572 36.3312 10.4188L54.8326 15.3644C57.4879 16.0741 60.0889 13.5982 60.8005 10.9435C62.5812 4.29995 69.3579 0.33988 75.9367 2.09844C82.5156 3.85699 86.4052 10.6682 84.6245 17.3118C83.9129 19.9665 84.9276 23.4089 87.5828 24.1187L106.084 29.0641C108.752 29.7772 110.335 32.5175 109.62 35.1848L104.57 54.0242Z" fill="#FFF6D6"/>
<path d="M75.9367 2.09844L76.0662 1.61548L75.9367 2.09844ZM14.836 90.6136L14.9655 90.1306L14.836 90.6136ZM33.3376 95.5592L33.2081 96.0421L33.3376 95.5592ZM25.1565 32.7972L24.6734 32.668L25.1565 32.7972ZM90.7135 105.721L90.2305 105.591L90.7135 105.721ZM95.7632 86.881L95.2802 86.7518L95.7632 86.881ZM30.2063 13.9572L30.6893 14.0863L30.2063 13.9572ZM109.079 59.4264C108.785 59.3476 108.49 59.2426 108.202 59.1142L107.794 60.0274C108.129 60.1763 108.472 60.2993 108.821 60.3923L109.079 59.4264ZM106.624 58.1128C106.14 57.6953 105.734 57.2148 105.443 56.7005L104.572 57.1928C104.927 57.8196 105.411 58.3872 105.97 58.8699L106.624 58.1128ZM104.95 55.0131C104.943 54.7296 104.976 54.4423 105.053 54.1533L104.087 53.8951C103.984 54.2776 103.941 54.6599 103.95 55.0366L104.95 55.0131ZM105.053 54.1533L105.306 53.2114L104.339 52.9531L104.087 53.8951L105.053 54.1533ZM105.811 51.3274L106.315 49.4435L105.349 49.1853L104.844 51.0692L105.811 51.3274ZM106.82 47.5596L107.325 45.6756L106.359 45.4174L105.854 47.3013L106.82 47.5596ZM107.83 43.7917L108.335 41.9077L107.369 41.6495L106.864 43.5334L107.83 43.7917ZM108.84 40.0238L109.345 38.1399L108.379 37.8816L107.874 39.7656L108.84 40.0238ZM109.85 36.2559L110.103 35.3139L109.137 35.0557L108.884 35.9977L109.85 36.2559ZM110.103 35.3139C110.198 34.9598 110.256 34.6039 110.279 34.2506L109.281 34.1848C109.262 34.4734 109.215 34.7648 109.137 35.0557L110.103 35.3139ZM109.999 32.1226C109.766 31.4398 109.401 30.808 108.926 30.2655L108.173 30.9245C108.562 31.3687 108.861 31.8863 109.052 32.4454L109.999 32.1226ZM107.223 28.9593C106.905 28.8032 106.567 28.6758 106.213 28.5812L105.954 29.5471C106.245 29.6248 106.521 29.7292 106.781 29.8567L107.223 28.9593ZM106.213 28.5812L105.288 28.3339L105.029 29.2998L105.954 29.5471L106.213 28.5812ZM103.438 27.8393L101.588 27.3448L101.329 28.3107L103.179 28.8052L103.438 27.8393ZM99.7379 26.8503L97.8878 26.3557L97.6289 27.3216L99.479 27.8162L99.7379 26.8503ZM96.0377 25.8612L94.1876 25.3666L93.9287 26.3325L95.7788 26.8271L96.0377 25.8612ZM92.3375 24.8721L90.4874 24.3776L90.2285 25.3435L92.0786 25.838L92.3375 24.8721ZM88.6373 23.883L87.7123 23.6357L87.4534 24.6016L88.3784 24.8489L88.6373 23.883ZM87.7123 23.6357C87.419 23.5573 87.1497 23.4406 86.9035 23.2917L86.3853 24.1472C86.7108 24.344 87.0672 24.4984 87.4534 24.6016L87.7123 23.6357ZM85.6672 22.0071C85.3611 21.4926 85.1432 20.8941 85.0205 20.2589L84.0385 20.4492C84.1803 21.1829 84.4352 21.8927 84.8075 22.5186L85.6672 22.0071ZM84.9379 18.3684C84.9708 18.0508 85.0275 17.7396 85.1075 17.4409L84.1414 17.1827C84.047 17.5348 83.9811 17.8982 83.943 18.2659L84.9379 18.3684ZM85.1075 17.4409C85.1956 17.1122 85.2704 16.7831 85.3321 16.454L84.3491 16.2702C84.292 16.5743 84.2229 16.8786 84.1414 17.1827L85.1075 17.4409ZM85.5503 14.444C85.571 13.7629 85.5378 13.0878 85.4537 12.4241L84.4614 12.5503C84.539 13.1627 84.5697 13.7856 84.5506 14.4142L85.5503 14.444ZM85.0435 10.4439C84.8549 9.79362 84.6161 9.16098 84.3305 8.55174L83.4248 8.97645C83.6884 9.5388 83.9088 10.1227 84.0829 10.723L85.0435 10.4439ZM83.3321 6.79339C82.9545 6.23506 82.533 5.70599 82.071 5.21198L81.3402 5.89506C81.7662 6.35053 82.155 6.83851 82.5034 7.35368L83.3321 6.79339ZM80.5758 3.84842C80.0462 3.43763 79.4807 3.06624 78.8824 2.73979L78.4029 3.61746C78.9538 3.91807 79.4746 4.26008 79.9624 4.63847L80.5758 3.84842ZM77.0341 1.91537C76.718 1.80362 76.3953 1.70346 76.0662 1.61548L75.8073 2.58139C76.111 2.66258 76.4087 2.75497 76.7 2.85798L77.0341 1.91537ZM76.0662 1.61548C75.7371 1.52751 75.4074 1.45327 75.0777 1.39243L74.8956 2.37565C75.1995 2.43173 75.5035 2.5002 75.8073 2.58139L76.0662 1.61548ZM73.0641 1.18451C72.3825 1.16884 71.7068 1.20845 71.0426 1.30012L71.1788 2.29055C71.7906 2.20611 72.4129 2.16965 73.0405 2.18407L73.0641 1.18451ZM69.0652 1.73547C68.4178 1.93291 67.7881 2.18099 67.1817 2.47631L67.6193 3.37509C68.1788 3.1026 68.7597 2.8738 69.3566 2.69177L69.0652 1.73547ZM65.4372 3.50146C64.885 3.88676 64.3617 4.31569 63.873 4.78492L64.5655 5.50585C65.0166 5.07276 65.4997 4.67684 66.0093 4.3212L65.4372 3.50146ZM62.5271 6.29566C62.1223 6.82866 61.7558 7.39692 61.433 7.99729L62.3139 8.47023C62.6118 7.91617 62.95 7.39181 63.3236 6.90001L62.5271 6.29566ZM60.6165 9.8474C60.5054 10.1633 60.4055 10.4857 60.3174 10.8144L61.2835 11.0726C61.365 10.7686 61.4574 10.4705 61.56 10.1786L60.6165 9.8474ZM60.3174 10.8144C60.2374 11.1131 60.1308 11.4109 60.0004 11.7024L60.9135 12.11C61.0644 11.7725 61.1891 11.4248 61.2835 11.0726L60.3174 10.8144ZM58.9831 13.299C58.5591 13.788 58.0709 14.1977 57.5484 14.4908L58.0373 15.3627C58.6729 15.0063 59.2488 14.5186 59.7387 13.9537L58.9831 13.299ZM55.8349 14.9869C55.5471 14.9931 55.2554 14.9598 54.9621 14.8814L54.7032 15.8473C55.0894 15.9506 55.4754 15.9946 55.8558 15.9865L55.8349 14.9869ZM54.9621 14.8814L54.037 14.6341L53.7781 15.6001L54.7032 15.8473L54.9621 14.8814ZM52.1869 14.1396L50.3367 13.645L50.0778 14.6109L51.928 15.1055L52.1869 14.1396ZM48.4866 13.1505L46.6364 12.6559L46.3775 13.6218L48.2277 14.1164L48.4866 13.1505ZM44.7863 12.1614L42.9361 11.6668L42.6772 12.6327L44.5274 13.1273L44.7863 12.1614ZM41.086 11.1723L39.2358 10.6777L38.9769 11.6436L40.8271 12.1382L41.086 11.1723ZM37.3857 10.1831L36.4606 9.93587L36.2017 10.9018L37.1268 11.1491L37.3857 10.1831ZM36.4606 9.93587C36.1064 9.84118 35.7505 9.78326 35.3971 9.75993L35.3306 10.7576C35.6193 10.7766 35.9108 10.824 36.2017 10.9018L36.4606 9.93587ZM33.2681 10.0417C32.585 10.2746 31.9528 10.6398 31.4098 11.1153L32.0685 11.8672C32.5131 11.4779 33.0311 11.1787 33.5904 10.988L33.2681 10.0417ZM30.1021 12.8188C29.9458 13.1366 29.8182 13.4739 29.7232 13.828L30.6893 14.0863C30.7673 13.7954 30.8719 13.5192 30.9996 13.2596L30.1021 12.8188ZM29.7232 13.828L29.4708 14.77L30.4368 15.0283L30.6893 14.0863L29.7232 13.828ZM28.9658 16.654L28.4608 18.538L29.4269 18.7963L29.9319 16.9123L28.9658 16.654ZM27.9558 20.422L27.4508 22.306L28.4169 22.5643L28.9219 20.6803L27.9558 20.422ZM26.9458 24.19L26.4409 26.074L27.4069 26.3323L27.9119 24.4483L26.9458 24.19ZM25.9359 27.958L25.4309 29.842L26.397 30.1003L26.902 28.2163L25.9359 27.958ZM24.9259 31.726L24.6734 32.668L25.6395 32.9263L25.892 31.9843L24.9259 31.726ZM24.6734 32.668C24.5709 33.0506 24.5274 33.4328 24.536 33.8095L25.5359 33.786C25.5294 33.5026 25.5621 33.2152 25.6395 32.9263L24.6734 32.668ZM25.1587 35.9657C25.513 36.5925 25.9969 37.1601 26.5565 37.6428L27.2102 36.8857C26.7262 36.4682 26.3202 35.9877 26.0295 35.4735L25.1587 35.9657ZM28.3809 38.8003C28.7149 38.9492 29.0588 39.0722 29.4069 39.1652L29.6658 38.1993C29.371 38.1205 29.0768 38.0156 28.7886 37.8871L28.3809 38.8003ZM29.4069 39.1652C29.7107 39.2464 30.0083 39.3388 30.2996 39.4418L30.6337 38.4992C30.3177 38.3874 29.9949 38.2873 29.6658 38.1993L29.4069 39.1652ZM32.0025 40.2013C32.5534 40.5019 33.0742 40.8439 33.562 41.2223L34.1755 40.4322C33.6459 40.0214 33.0804 39.6501 32.4821 39.3236L32.0025 40.2013ZM34.9399 42.4789C35.3659 42.9343 35.7546 43.4223 36.103 43.9375L36.9317 43.3772C36.5541 42.8189 36.1327 42.2898 35.6706 41.7958L34.9399 42.4789ZM37.0244 45.5603C37.288 46.1226 37.5084 46.7066 37.6826 47.3068L38.6432 47.0278C38.4545 46.3774 38.2157 45.7448 37.9301 45.1356L37.0244 45.5603ZM38.0611 49.1341C38.1387 49.7465 38.1693 50.3695 38.1502 50.998L39.1499 51.0278C39.1706 50.3467 39.1374 49.6716 39.0533 49.0079L38.0611 49.1341ZM37.9487 52.8541C37.8917 53.1581 37.8226 53.4625 37.7411 53.7665L38.7072 54.0247C38.7952 53.6961 38.87 53.3669 38.9318 53.0378L37.9487 52.8541ZM37.7411 53.7665C37.6596 54.0706 37.5672 54.3687 37.4645 54.6605L38.408 54.9917C38.5192 54.6759 38.6191 54.3534 38.7072 54.0247L37.7411 53.7665ZM36.7107 56.3689C36.4128 56.923 36.0746 57.4473 35.701 57.9391L36.4974 58.5435C36.9023 58.0105 37.2688 57.4422 37.5916 56.8418L36.7107 56.3689ZM34.459 59.3333C34.0079 59.7664 33.5249 60.1623 33.0152 60.5179L33.5874 61.3377C34.1395 60.9524 34.6628 60.5234 35.1516 60.0542L34.459 59.3333ZM31.4052 61.464C30.8457 61.7365 30.2649 61.9653 29.668 62.1474L29.9593 63.1037C30.6067 62.9062 31.2365 62.6581 31.8429 62.3628L31.4052 61.464ZM27.8458 62.5486C27.2339 62.633 26.6117 62.6695 25.984 62.655L25.9605 63.6546C26.6421 63.6703 27.3177 63.6307 27.982 63.539L27.8458 62.5486ZM24.129 62.4635C23.8251 62.4074 23.521 62.3389 23.2173 62.2577L22.9584 63.2236C23.2875 63.3116 23.6172 63.3858 23.9468 63.4467L24.129 62.4635ZM23.2173 62.2577C22.8692 62.1647 22.5097 62.0996 22.1459 62.062L22.0423 63.0565C22.3562 63.089 22.6636 63.1448 22.9584 63.2236L23.2173 62.2577ZM19.9864 62.1546C19.2602 62.2936 18.5571 62.5438 17.9366 62.9101L18.4448 63.771C18.9538 63.4705 19.5459 63.2568 20.174 63.1366L19.9864 62.1546ZM16.3186 64.4674C16.1227 64.7894 15.9692 65.1422 15.8666 65.5247L16.8327 65.783C16.9102 65.494 17.0256 65.2288 17.1731 64.9865L16.3186 64.4674ZM15.8666 65.5247L15.6142 66.4667L16.5802 66.7249L16.8327 65.783L15.8666 65.5247ZM15.1092 68.3506L14.6042 70.2345L15.5703 70.4927L16.0753 68.6088L15.1092 68.3506ZM14.0993 72.1184L13.5943 74.0023L14.5604 74.2605L15.0654 72.3766L14.0993 72.1184ZM13.0894 75.8862L12.5844 77.7701L13.5505 78.0283L14.0555 76.1444L13.0894 75.8862ZM12.0795 79.654L11.5745 81.5379L12.5406 81.7961L13.0455 79.9122L12.0795 79.654ZM11.0696 83.4218L10.8171 84.3637L11.7832 84.622L12.0356 83.68L11.0696 83.4218ZM10.8171 84.3637C10.7222 84.7179 10.664 85.0737 10.6404 85.427L11.6384 85.4929C11.6576 85.2043 11.7052 84.9129 11.7832 84.622L10.8171 84.3637ZM10.9211 87.5551C11.1536 88.2379 11.5186 88.8697 11.9939 89.4122L12.7465 88.7532C12.3573 88.309 12.0583 87.7914 11.8679 87.2323L10.9211 87.5551ZM13.6972 90.7184C14.015 90.8745 14.3523 91.0018 14.7066 91.0965L14.9655 90.1306C14.6745 90.0529 14.3983 89.9485 14.1387 89.821L13.6972 90.7184ZM14.7066 91.0965L15.6317 91.3438L15.8906 90.3779L14.9655 90.1306L14.7066 91.0965ZM17.4818 91.8384L19.332 92.3329L19.5909 91.367L17.7407 90.8725L17.4818 91.8384ZM21.1821 92.8275L23.0323 93.322L23.2912 92.3561L21.441 91.8616L21.1821 92.8275ZM24.8824 93.8166L26.7326 94.3112L26.9915 93.3453L25.1413 92.8507L24.8824 93.8166ZM28.5827 94.8057L30.4329 95.3003L30.6918 94.3344L28.8416 93.8398L28.5827 94.8057ZM32.283 95.7948L33.2081 96.0421L33.467 95.0762L32.5419 94.8289L32.283 95.7948ZM33.2081 96.0421C33.5943 96.1453 33.9803 96.1894 34.3607 96.1812L34.3398 95.1816C34.052 95.1878 33.7603 95.1546 33.467 95.0762L33.2081 96.0421ZM36.5421 95.5575C37.1777 95.2011 37.7536 94.7134 38.2435 94.1485L37.4879 93.4939C37.0639 93.9828 36.5758 94.3926 36.0532 94.6856L36.5421 95.5575ZM39.4183 92.3049C39.5692 91.9674 39.6939 91.6197 39.7883 91.2676L38.8222 91.0093C38.7421 91.308 38.6355 91.6058 38.5052 91.8973L39.4183 92.3049ZM39.7883 91.2676C39.8698 90.9635 39.9621 90.6654 40.0648 90.3735L39.1213 90.0423C39.0102 90.3582 38.9103 90.6807 38.8222 91.0093L39.7883 91.2676ZM40.8187 88.6652C41.1166 88.1111 41.4547 87.5868 41.8283 87.0949L41.0319 86.4906C40.627 87.0236 40.2605 87.5919 39.9377 88.1922L40.8187 88.6652ZM43.0703 85.7008C43.5214 85.2677 44.0044 84.8718 44.5141 84.5161L43.942 83.6964C43.3898 84.0817 42.8665 84.5106 42.3777 84.9799L43.0703 85.7008ZM46.1241 83.57C46.6836 83.2975 47.2644 83.0687 47.8613 82.8867L47.57 81.9304C46.9226 82.1279 46.2928 82.3759 45.6865 82.6713L46.1241 83.57ZM49.6835 82.4855C50.2954 82.4011 50.9176 82.3646 51.5453 82.379L51.5688 81.3794C50.8872 81.3638 50.2116 81.4034 49.5473 81.4951L49.6835 82.4855ZM53.4003 82.5706C53.7042 82.6267 54.0083 82.6951 54.312 82.7763L54.5709 81.8104C54.2418 81.7225 53.9121 81.6482 53.5825 81.5874L53.4003 82.5706ZM54.312 82.7763C54.6158 82.8575 54.9135 82.9499 55.2048 83.0529L55.5388 82.1103C55.2228 81.9986 54.9001 81.8984 54.5709 81.8104L54.312 82.7763ZM56.9076 83.8124C57.4585 84.113 57.9793 84.455 58.4671 84.8334L59.0806 84.0434C58.551 83.6326 57.9855 83.2612 57.3872 82.9347L56.9076 83.8124ZM59.845 86.09C60.271 86.5455 60.6597 87.0334 61.0081 87.5486L61.8368 86.9883C61.4592 86.43 61.0378 85.9009 60.5757 85.4069L59.845 86.09ZM61.9295 89.1714C62.1932 89.7337 62.4135 90.3177 62.5877 90.9179L63.5483 90.6389C63.3596 89.9886 63.1208 89.3559 62.8352 88.7467L61.9295 89.1714ZM62.9662 92.7452C63.0438 93.3576 63.0745 93.9806 63.0554 94.6092L64.0551 94.6389C64.0758 93.9578 64.0425 93.2827 63.9584 92.619L62.9662 92.7452ZM62.8539 96.4652C62.7968 96.7692 62.7277 97.0736 62.6462 97.3776L63.6123 97.6359C63.7004 97.3072 63.7751 96.978 63.8369 96.649L62.8539 96.4652ZM62.6462 97.3776C62.5518 97.7298 62.4859 98.0932 62.4478 98.4608L63.4426 98.5633C63.4755 98.2457 63.5322 97.9346 63.6123 97.6359L62.6462 97.3776ZM62.5432 100.644C62.685 101.378 62.9399 102.087 63.3123 102.713L64.172 102.202C63.8659 101.687 63.648 101.089 63.5252 100.454L62.5432 100.644ZM64.89 104.342C65.2155 104.539 65.5719 104.693 65.9581 104.796L66.217 103.83C65.9237 103.752 65.6544 103.635 65.4082 103.486L64.89 104.342ZM65.9581 104.796L66.8831 105.044L67.142 104.078L66.217 103.83L65.9581 104.796ZM68.7332 105.538L70.5833 106.033L70.8422 105.067L68.9921 104.572L68.7332 105.538ZM72.4335 106.527L74.2836 107.022L74.5425 106.056L72.6924 105.561L72.4335 106.527ZM76.1337 107.516L77.9838 108.011L78.2427 107.045L76.3926 106.55L76.1337 107.516ZM79.8339 108.505L81.684 109L81.9429 108.034L80.0928 107.54L79.8339 108.505ZM83.5341 109.495L84.4592 109.742L84.7181 108.776L83.793 108.529L83.5341 109.495ZM84.4592 109.742C84.8134 109.837 85.1693 109.894 85.5227 109.918L85.5892 108.92C85.3005 108.901 85.009 108.854 84.7181 108.776L84.4592 109.742ZM87.6517 109.636C88.3348 109.403 88.967 109.038 89.5101 108.562L88.8513 107.81C88.4067 108.2 87.8887 108.499 87.3294 108.69L87.6517 109.636ZM90.8177 106.859C90.974 106.541 91.1016 106.204 91.1966 105.85L90.2305 105.591C90.1525 105.882 90.0479 106.158 89.9202 106.418L90.8177 106.859ZM91.1966 105.85L91.449 104.908L90.483 104.649L90.2305 105.591L91.1966 105.85ZM91.954 103.024L92.459 101.14L91.4929 100.882L90.9879 102.765L91.954 103.024ZM92.964 99.2558L93.4689 97.3718L92.5028 97.1136L91.9979 98.9976L92.964 99.2558ZM93.9739 95.4879L94.4789 93.6039L93.5128 93.3457L93.0078 95.2296L93.9739 95.4879ZM94.9838 91.72L95.4888 89.836L94.5227 89.5778L94.0178 91.4617L94.9838 91.72ZM95.9938 87.9521L96.2463 87.0101L95.2802 86.7518L95.0277 87.6938L95.9938 87.9521ZM96.2463 87.0101C96.3237 86.7211 96.4392 86.4559 96.5866 86.2136L95.7322 85.6945C95.5363 86.0165 95.3827 86.3693 95.2802 86.7518L96.2463 87.0101ZM97.8583 84.9981C98.3674 84.6976 98.9595 84.4839 99.5875 84.3637L99.4 83.3817C98.6738 83.5207 97.9707 83.7709 97.3502 84.1372L97.8583 84.9981ZM101.456 84.2836C101.77 84.3161 102.077 84.3719 102.372 84.4507L102.631 83.4848C102.283 83.3918 101.923 83.3267 101.56 83.2891L101.456 84.2836ZM102.372 84.4507C102.701 84.5387 103.031 84.6129 103.36 84.6738L103.543 83.6906C103.239 83.6345 102.935 83.566 102.631 83.4848L102.372 84.4507ZM105.374 84.8817C106.056 84.8974 106.731 84.8578 107.396 84.7661L107.259 83.7757C106.648 83.8601 106.025 83.8966 105.398 83.8821L105.374 84.8817ZM109.373 84.3308C110.02 84.1333 110.65 83.8852 111.256 83.5899L110.819 82.6911C110.259 82.9636 109.678 83.1924 109.082 83.3745L109.373 84.3308ZM113.001 82.5648C113.553 82.1795 114.076 81.7505 114.565 81.2813L113.873 80.5604C113.422 80.9935 112.938 81.3894 112.429 81.745L113.001 82.5648ZM115.911 79.7706C116.316 79.2376 116.682 78.6693 117.005 78.0689L116.124 77.596C115.826 78.1501 115.488 78.6744 115.115 79.1662L115.911 79.7706ZM117.822 76.2188C117.933 75.903 118.033 75.5805 118.121 75.2518L117.155 74.9936C117.073 75.2977 116.981 75.5958 116.878 75.8876L117.822 76.2188ZM118.121 75.2518C118.209 74.9232 118.284 74.594 118.345 74.2649L117.362 74.0812C117.305 74.3852 117.236 74.6895 117.155 74.9936L118.121 75.2518ZM118.564 72.2549C118.584 71.5738 118.551 70.8987 118.467 70.235L117.475 70.3612C117.552 70.9736 117.583 71.5966 117.564 72.2251L118.564 72.2549ZM118.057 68.2549C117.868 67.6045 117.629 66.9719 117.344 66.3627L116.438 66.7874C116.702 67.3497 116.922 67.9337 117.096 68.5339L118.057 68.2549ZM116.345 64.6043C115.968 64.046 115.546 63.5169 115.084 63.0229L114.353 63.706C114.779 64.1614 115.168 64.6494 115.517 65.1646L116.345 64.6043ZM113.589 61.6593C113.059 61.2485 112.494 60.8772 111.896 60.5507L111.416 61.4284C111.967 61.729 112.488 62.071 112.976 62.4494L113.589 61.6593ZM110.047 59.7263C109.731 59.6145 109.409 59.5144 109.079 59.4264L108.821 60.3923C109.124 60.4735 109.422 60.5659 109.713 60.6689L110.047 59.7263ZM75.9367 2.09844L76.1956 1.13253L75.9367 2.09844ZM14.836 90.6136L15.0949 89.6477L14.836 90.6136ZM33.3376 95.5592L33.0787 96.5251L33.3376 95.5592ZM25.1565 32.7972L24.1904 32.5389L25.1565 32.7972ZM90.7135 105.721L89.7474 105.462L90.7135 105.721ZM95.7632 86.881L94.7971 86.6227L95.7632 86.881ZM30.2063 13.9572L31.1724 14.2154L30.2063 13.9572ZM109.209 58.9434C108.941 58.8718 108.671 58.7758 108.406 58.6576L107.591 60.484C107.948 60.6431 108.316 60.7751 108.691 60.8753L109.209 58.9434ZM106.951 57.7342C106.504 57.3493 106.137 56.9124 105.879 56.4544L104.137 57.4389C104.523 58.122 105.046 58.7332 105.643 59.2485L106.951 57.7342ZM105.449 55.0014C105.444 54.7645 105.471 54.5246 105.536 54.2825L103.604 53.766C103.489 54.1953 103.44 54.625 103.45 55.0483L105.449 55.0014ZM105.536 54.2825L105.789 53.3405L103.856 52.824L103.604 53.766L105.536 54.2825ZM106.294 51.4566L106.799 49.5726L104.866 49.0561L104.361 50.9401L106.294 51.4566ZM107.303 47.6887L107.808 45.8047L105.876 45.2883L105.371 47.1722L107.303 47.6887ZM108.313 43.9208L108.818 42.0369L106.886 41.5204L106.381 43.4043L108.313 43.9208ZM109.323 40.1529L109.828 38.269L107.896 37.7525L107.391 39.6364L109.323 40.1529ZM110.333 36.385L110.586 35.4431L108.654 34.9266L108.401 35.8686L110.333 36.385ZM110.586 35.4431C110.689 35.0572 110.753 34.6692 110.778 34.2836L108.782 34.1518C108.765 34.4081 108.723 34.6673 108.654 34.9266L110.586 35.4431ZM110.472 31.9612C110.219 31.2166 109.821 30.5277 109.302 29.936L107.797 31.2539C108.143 31.6491 108.409 32.1095 108.579 32.6067L110.472 31.9612ZM107.443 28.5106C107.096 28.3402 106.729 28.2013 106.343 28.0982L105.825 30.03C106.084 30.0993 106.33 30.1922 106.56 30.3054L107.443 28.5106ZM106.343 28.0982L105.418 27.8509L104.9 29.7827L105.825 30.03L106.343 28.0982ZM103.568 27.3564L101.717 26.8618L101.2 28.7937L103.05 29.2882L103.568 27.3564ZM99.8673 26.3673L98.0172 25.8728L97.4995 27.8046L99.3495 28.2991L99.8673 26.3673ZM96.1672 25.3782L94.3171 24.8837L93.7993 26.8155L95.6494 27.31L96.1672 25.3782ZM92.467 24.3891L90.6169 23.8946L90.0991 25.8264L91.9492 26.321L92.467 24.3891ZM88.7668 23.4001L87.8417 23.1528L87.3239 25.0846L88.249 25.3319L88.7668 23.4001ZM87.8417 23.1528C87.5949 23.0868 87.3691 22.9889 87.1626 22.8639L86.1262 24.5749C86.4913 24.7958 86.8913 24.969 87.3239 25.0846L87.8417 23.1528ZM86.0971 21.7514C85.8241 21.2925 85.6247 20.7497 85.5115 20.1638L83.5475 20.5443C83.6988 21.3273 83.9722 22.0927 84.3777 22.7743L86.0971 21.7514ZM85.4353 18.4196C85.4656 18.1271 85.5177 17.842 85.5906 17.57L83.6584 17.0536C83.5568 17.4325 83.4863 17.822 83.4456 18.2147L85.4353 18.4196ZM85.5906 17.57C85.682 17.2291 85.7595 16.8875 85.8236 16.5459L83.8576 16.1784C83.8029 16.4699 83.7366 16.7618 83.6584 17.0536L85.5906 17.57ZM86.0502 14.4589C86.0717 13.7515 86.0372 13.0503 85.9498 12.3609L83.9653 12.6134C84.0397 13.2002 84.0691 13.797 84.0508 14.3993L86.0502 14.4589ZM85.5238 10.3044C85.3279 9.62906 85.0799 8.97207 84.7833 8.33939L82.9719 9.1888C83.2246 9.72771 83.4358 10.2873 83.6026 10.8625L85.5238 10.3044ZM83.7464 6.51325C83.3543 5.93334 82.9165 5.38372 82.4364 4.87043L80.9748 6.23661C81.3828 6.67279 81.7552 7.14023 82.089 7.63382L83.7464 6.51325ZM80.8826 3.45339C80.3321 3.0264 79.7442 2.64033 79.1222 2.30095L78.1631 4.05629C78.6903 4.34399 79.1888 4.67131 79.6557 5.0335L80.8826 3.45339ZM77.2011 1.44406C76.8727 1.32794 76.5374 1.2239 76.1956 1.13253L75.6778 3.06434C75.9689 3.14214 76.254 3.23064 76.533 3.32929L77.2011 1.44406ZM76.1956 1.13253C75.8538 1.04116 75.5113 0.964039 75.1688 0.90082L74.8045 2.86725C75.0955 2.92096 75.3868 2.98654 75.6778 3.06434L76.1956 1.13253ZM73.0759 0.684723C72.3673 0.66844 71.6649 0.709615 70.9745 0.804898L71.2469 2.78577C71.8325 2.70495 72.4281 2.67005 73.0287 2.68385L73.0759 0.684723ZM68.9196 1.25732C68.2469 1.46246 67.5927 1.72019 66.9629 2.02692L67.8381 3.82448C68.3742 3.56341 68.9306 3.34425 69.5022 3.16991L68.9196 1.25732ZM65.1511 3.09159C64.5777 3.49171 64.0343 3.93715 63.5267 4.42446L64.9118 5.86631C65.3441 5.4513 65.807 5.07189 66.2954 4.73107L65.1511 3.09159ZM62.1289 5.99349C61.7084 6.54709 61.3278 7.1373 60.9925 7.76082L62.7544 8.70669C63.0398 8.17579 63.3638 7.67339 63.7218 7.20218L62.1289 5.99349ZM60.1448 9.6818C60.0294 10.0097 59.9258 10.3443 59.8344 10.6853L61.7665 11.2017C61.8447 10.91 61.9333 10.6241 62.0318 10.3442L60.1448 9.6818ZM59.8344 10.6853C59.7615 10.9572 59.664 11.2301 59.5439 11.4987L61.37 12.3138C61.5312 11.9532 61.665 11.5806 61.7665 11.2017L59.8344 10.6853ZM58.6054 12.9717C58.2142 13.4227 57.7699 13.7935 57.3039 14.0548L58.2818 15.7987C58.9739 15.4105 59.5936 14.8839 60.1165 14.281L58.6054 12.9717ZM55.8244 14.4871C55.5829 14.4923 55.3384 14.4645 55.0915 14.3985L54.5737 16.3303C55.0064 16.4459 55.4395 16.4954 55.8663 16.4863L55.8244 14.4871ZM55.0915 14.3985L54.1665 14.1512L53.6487 16.083L54.5737 16.3303L55.0915 14.3985ZM52.3163 13.6566L50.4662 13.1621L49.9484 15.0939L51.7985 15.5884L52.3163 13.6566ZM48.616 12.6675L46.7659 12.173L46.2481 14.1048L48.0982 14.5993L48.616 12.6675ZM44.9157 11.6784L43.0656 11.1839L42.5478 13.1157L44.3979 13.6102L44.9157 11.6784ZM41.2154 10.6893L39.3653 10.1948L38.8475 12.1266L40.6977 12.6211L41.2154 10.6893ZM37.5151 9.7002L36.5901 9.45292L36.0723 11.3847L36.9974 11.632L37.5151 9.7002ZM36.5901 9.45292C36.2042 9.34977 35.816 9.28656 35.4303 9.2611L35.2973 11.2564C35.5537 11.2733 35.813 11.3154 36.0723 11.3847L36.5901 9.45292ZM33.107 9.56858C32.3619 9.82255 31.6726 10.2208 31.0804 10.7393L32.3979 12.2432C32.7933 11.897 33.2541 11.6308 33.7516 11.4612L33.107 9.56858ZM29.6534 12.5984C29.4828 12.9453 29.3436 13.3131 29.2402 13.6989L31.1724 14.2154C31.2419 13.9561 31.3349 13.7105 31.4483 13.48L29.6534 12.5984ZM29.2402 13.6989L28.9877 14.6409L30.9199 15.1574L31.1724 14.2154L29.2402 13.6989ZM28.4827 16.5249L27.9777 18.4089L29.9099 18.9254L30.4149 17.0414L28.4827 16.5249ZM27.4728 20.2929L26.9678 22.1769L28.8999 22.6934L29.4049 20.8094L27.4728 20.2929ZM26.4628 24.0609L25.9578 25.9449L27.89 26.4614L28.395 24.5774L26.4628 24.0609ZM25.4528 27.8289L24.9479 29.7129L26.88 30.2294L27.385 28.3454L25.4528 27.8289ZM24.4429 31.5969L24.1904 32.5389L26.1226 33.0554L26.375 32.1134L24.4429 31.5969ZM24.1904 32.5389C24.0753 32.9682 24.0264 33.3979 24.0361 33.8212L26.0359 33.7743C26.0305 33.5374 26.0576 33.2976 26.1226 33.0554L24.1904 32.5389ZM24.7233 36.2118C25.1094 36.8949 25.6323 37.5061 26.2297 38.0214L27.537 36.5071C27.0908 36.1222 26.7238 35.6853 26.465 35.2273L24.7233 36.2118ZM28.177 39.2569C28.534 39.416 28.9027 39.548 29.2775 39.6482L29.7953 37.7164C29.5271 37.6447 29.2578 37.5487 28.9925 37.4305L28.177 39.2569ZM29.2775 39.6482C29.5685 39.726 29.8537 39.8145 30.1326 39.9131L30.8007 38.0279C30.4723 37.9118 30.1371 37.8077 29.7953 37.7164L29.2775 39.6482ZM31.7627 40.6401C32.2899 40.9278 32.7884 41.2551 33.2553 41.6173L34.4822 40.0372C33.9317 39.6102 33.3438 39.2241 32.7219 38.8848L31.7627 40.6401ZM34.5745 42.8204C34.9825 43.2566 35.3548 43.7241 35.6886 44.2176L37.346 43.0971C36.9539 42.5172 36.5161 41.9675 36.036 41.4543L34.5745 42.8204ZM36.5716 45.7726C36.8242 46.3115 37.0354 46.8711 37.2023 47.4463L39.1235 46.8883C38.9275 46.2129 38.6796 45.5559 38.383 44.9232L36.5716 45.7726ZM37.5649 49.1972C37.6393 49.784 37.6687 50.3808 37.6504 50.9832L39.6498 51.0427C39.6713 50.3353 39.6368 49.6341 39.5494 48.9448L37.5649 49.1972ZM37.4572 52.7622C37.4025 53.0537 37.3362 53.3456 37.258 53.6374L39.1902 54.1539C39.2816 53.8129 39.3592 53.4713 39.4233 53.1297L37.4572 52.7622ZM37.258 53.6374C37.1798 53.9291 37.0912 54.2151 36.9928 54.4949L38.8798 55.1573C38.9951 54.8295 39.0988 54.4948 39.1902 54.1539L37.258 53.6374ZM36.2702 56.1324C35.9847 56.6633 35.6607 57.1657 35.3028 57.6369L36.8956 58.8456C37.3161 58.292 37.6968 57.7018 38.032 57.0783L36.2702 56.1324ZM34.1127 58.9728C33.6805 59.3878 33.2176 59.7672 32.7291 60.1081L33.8734 61.7475C34.4468 61.3474 34.9903 60.902 35.4979 60.4147L34.1127 58.9728ZM31.1864 61.0146C30.6504 61.2757 30.0939 61.4949 29.5223 61.6692L30.105 63.5818C30.7777 63.3767 31.4319 63.1189 32.0617 62.8122L31.1864 61.0146ZM27.7777 62.0534C27.192 62.1342 26.5965 62.1691 25.9958 62.1553L25.9487 64.1544C26.6573 64.1707 27.3596 64.1295 28.0501 64.0342L27.7777 62.0534ZM24.2201 61.9719C23.9291 61.9182 23.6378 61.8526 23.3467 61.7748L22.8289 63.7066C23.1707 63.798 23.5132 63.8751 23.8558 63.9383L24.2201 61.9719ZM23.3467 61.7748C22.9719 61.6746 22.5865 61.605 22.1977 61.5647L21.9905 63.5537C22.2795 63.5837 22.5608 63.6349 22.8289 63.7066L23.3467 61.7748ZM19.8927 61.6636C19.1174 61.812 18.3587 62.0805 17.6825 62.4797L18.6988 64.2014C19.1522 63.9338 19.6887 63.7384 20.2677 63.6276L19.8927 61.6636ZM15.8914 64.2078C15.6712 64.5696 15.4987 64.9663 15.3836 65.3956L17.3158 65.9121C17.3807 65.6699 17.4771 65.4486 17.6003 65.2461L15.8914 64.2078ZM15.3836 65.3956L15.1311 66.3376L17.0633 66.854L17.3158 65.9121L15.3836 65.3956ZM14.6262 68.2215L14.1212 70.1054L16.0534 70.6218L16.5583 68.7379L14.6262 68.2215ZM13.6162 71.9893L13.1113 73.8732L15.0435 74.3896L15.5484 72.5057L13.6162 71.9893ZM12.6063 75.7571L12.1014 77.641L14.0335 78.1574L14.5385 76.2735L12.6063 75.7571ZM11.5964 79.5249L11.0915 81.4088L13.0236 81.9253L13.5286 80.0413L11.5964 79.5249ZM10.5865 83.2927L10.334 84.2346L12.2662 84.7511L12.5187 83.8092L10.5865 83.2927ZM10.334 84.2346C10.2306 84.6204 10.1672 85.0085 10.1415 85.3941L12.1374 85.5259C12.1545 85.2695 12.1967 85.0104 12.2662 84.7511L10.334 84.2346ZM10.4477 87.7165C10.7013 88.4611 11.0993 89.15 11.6176 89.7417L13.1228 88.4237C12.7767 88.0286 12.5107 87.5682 12.3413 87.0709L10.4477 87.7165ZM13.4765 91.1671C13.8234 91.3375 14.1912 91.4763 14.5771 91.5795L15.0949 89.6477C14.8356 89.5784 14.59 89.4855 14.3594 89.3722L13.4765 91.1671ZM14.5771 91.5795L15.5022 91.8268L16.02 89.895L15.0949 89.6477L14.5771 91.5795ZM17.3524 92.3213L19.2025 92.8159L19.7203 90.8841L17.8702 90.3895L17.3524 92.3213ZM21.0527 93.3104L22.9028 93.805L23.4206 91.8732L21.5705 91.3786L21.0527 93.3104ZM24.753 94.2996L26.6031 94.7941L27.1209 92.8623L25.2708 92.3677L24.753 94.2996ZM28.4533 95.2887L30.3034 95.7832L30.8212 93.8514L28.9711 93.3569L28.4533 95.2887ZM32.1536 96.2778L33.0787 96.5251L33.5965 94.5933L32.6714 94.346L32.1536 96.2778ZM33.0787 96.5251C33.5113 96.6407 33.9444 96.6902 34.3712 96.681L34.3293 94.6818C34.0878 94.687 33.8433 94.6592 33.5965 94.5933L33.0787 96.5251ZM36.7866 95.9935C37.4787 95.6054 38.0985 95.0787 38.6213 94.4759L37.1102 93.1665C36.719 93.6175 36.2748 93.9883 35.8087 94.2496L36.7866 95.9935ZM39.8748 92.5087C40.036 92.1482 40.1697 91.7756 40.2713 91.3967L38.3391 90.8802C38.2662 91.1522 38.1687 91.4251 38.0487 91.6936L39.8748 92.5087ZM40.2713 91.3967C40.3495 91.1049 40.4381 90.819 40.5365 90.5391L38.6495 89.8767C38.5342 90.2046 38.4305 90.5392 38.3391 90.8802L40.2713 91.3967ZM41.2591 88.9016C41.5446 88.3707 41.8686 87.8683 42.2265 87.3971L40.6337 86.1884C40.2132 86.742 39.8325 87.3322 39.4973 87.9558L41.2591 88.9016ZM43.4166 86.0613C43.8489 85.6462 44.3117 85.2668 44.8002 84.926L43.6559 83.2865C43.0825 83.6866 42.539 84.1321 42.0314 84.6194L43.4166 86.0613ZM46.3429 84.0194C46.879 83.7583 47.4354 83.5392 48.007 83.3649L47.4243 81.4523C46.7517 81.6574 46.0975 81.9151 45.4677 82.2219L46.3429 84.0194ZM49.7516 82.9807C50.3373 82.8999 50.9328 82.865 51.5335 82.8788L51.5806 80.8797C50.8721 80.8634 50.1697 80.9046 49.4792 80.9998L49.7516 82.9807ZM53.3093 83.0622C53.6003 83.1159 53.8915 83.1815 54.1826 83.2593L54.7004 81.3275C54.3586 81.2361 54.0161 81.159 53.6735 81.0958L53.3093 83.0622ZM54.1826 83.2593C54.4736 83.3371 54.7588 83.4256 55.0377 83.5242L55.7058 81.639C55.3775 81.5229 55.0422 81.4188 54.7004 81.3275L54.1826 83.2593ZM56.6678 84.2512C57.1951 84.5389 57.6935 84.8663 58.1604 85.2284L59.3873 83.6483C58.8368 83.2213 58.249 82.8353 57.627 82.4959L56.6678 84.2512ZM59.4796 86.4315C59.8876 86.8677 60.26 87.3352 60.5938 87.8288L62.2512 86.7082C61.859 86.1283 61.4212 85.5787 60.9411 85.0654L59.4796 86.4315ZM61.4767 89.3837C61.7293 89.9226 61.9405 90.4822 62.1074 91.0574L64.0286 90.4994C63.8326 89.824 63.5847 89.167 63.2881 88.5343L61.4767 89.3837ZM62.4701 92.8083C62.5444 93.3951 62.5738 93.992 62.5555 94.5943L64.5549 94.6538C64.5764 93.9464 64.5419 93.2452 64.4545 92.5559L62.4701 92.8083ZM62.3623 96.3733C62.3076 96.6649 62.2413 96.9568 62.1631 97.2485L64.0953 97.765C64.1867 97.424 64.2643 97.0824 64.3284 96.7408L62.3623 96.3733ZM62.1631 97.2485C62.0616 97.6274 61.9911 98.0169 61.9504 98.4096L63.9401 98.6145C63.9704 98.322 64.0224 98.0369 64.0953 97.765L62.1631 97.2485ZM62.0522 100.739C62.2036 101.522 62.477 102.288 62.8824 102.969L64.6018 101.946C64.3289 101.487 64.1295 100.944 64.0162 100.359L62.0522 100.739ZM64.6309 104.77C64.996 104.99 65.396 105.164 65.8286 105.279L66.3464 103.348C66.0996 103.282 65.8738 103.184 65.6673 103.059L64.6309 104.77ZM65.8286 105.279L66.7537 105.527L67.2715 103.595L66.3464 103.348L65.8286 105.279ZM68.6038 106.021L70.4539 106.516L70.9717 104.584L69.1216 104.089L68.6038 106.021ZM72.304 107.01L74.1541 107.505L74.6719 105.573L72.8218 105.078L72.304 107.01ZM76.0042 107.999L77.8543 108.494L78.3721 106.562L76.522 106.068L76.0042 107.999ZM79.7045 108.988L81.5546 109.483L82.0724 107.551L80.2223 107.057L79.7045 108.988ZM83.4047 109.977L84.3297 110.225L84.8475 108.293L83.9225 108.046L83.4047 109.977ZM84.3297 110.225C84.7156 110.328 85.1038 110.391 85.4895 110.417L85.6225 108.421C85.3661 108.404 85.1068 108.362 84.8475 108.293L84.3297 110.225ZM87.8128 110.109C88.5579 109.855 89.2472 109.457 89.8394 108.938L88.5219 107.434C88.1265 107.781 87.6657 108.047 87.1682 108.217L87.8128 110.109ZM91.2664 107.079C91.437 106.732 91.5762 106.365 91.6796 105.979L89.7474 105.462C89.6779 105.722 89.5849 105.967 89.4715 106.198L91.2664 107.079ZM91.6796 105.979L91.9321 105.037L89.9999 104.52L89.7474 105.462L91.6796 105.979ZM92.4371 103.153L92.942 101.269L91.0099 100.752L90.5049 102.636L92.4371 103.153ZM93.447 99.3849L93.952 97.501L92.0198 96.9845L91.5148 98.8684L93.447 99.3849ZM94.4569 95.617L94.9619 93.733L93.0297 93.2166L92.5248 95.1005L94.4569 95.617ZM95.4669 91.8491L95.9718 89.9651L94.0397 89.4487L93.5347 91.3326L95.4669 91.8491ZM96.4768 88.0812L96.7293 87.1392L94.7971 86.6227L94.5447 87.5647L96.4768 88.0812ZM96.7293 87.1392C96.7942 86.897 96.8907 86.6757 97.0138 86.4732L95.3049 85.4349C95.0848 85.7967 94.9122 86.1934 94.7971 86.6227L96.7293 87.1392ZM98.1124 85.4285C98.5658 85.1609 99.1023 84.9655 99.6813 84.8547L99.3063 82.8907C98.531 83.0391 97.7723 83.3076 97.0961 83.7068L98.1124 85.4285ZM101.404 84.7808C101.693 84.8108 101.974 84.862 102.243 84.9337L102.76 83.0019C102.386 82.9017 102 82.8321 101.611 82.7918L101.404 84.7808ZM102.243 84.9337C102.584 85.025 102.927 85.1022 103.269 85.1654L103.634 83.199C103.343 83.1453 103.051 83.0797 102.76 83.0019L102.243 84.9337ZM105.362 85.3815C106.071 85.3978 106.773 85.3566 107.464 85.2613L107.191 83.2805C106.606 83.3613 106.01 83.3962 105.409 83.3824L105.362 85.3815ZM109.519 84.8089C110.191 84.6038 110.845 84.346 111.475 84.0393L110.6 82.2417C110.064 82.5028 109.508 82.722 108.936 82.8963L109.519 84.8089ZM113.287 82.9746C113.86 82.5745 114.404 82.1291 114.911 81.6418L113.526 80.1999C113.094 80.6149 112.631 80.9943 112.143 81.3352L113.287 82.9746ZM116.309 80.0727C116.73 79.5191 117.11 78.9289 117.446 78.3054L115.684 77.3595C115.398 77.8904 115.074 78.3928 114.716 78.864L116.309 80.0727ZM118.293 76.3844C118.409 76.0566 118.512 75.7219 118.604 75.381L116.672 74.8645C116.593 75.1562 116.505 75.4422 116.406 75.722L118.293 76.3844ZM118.604 75.381C118.695 75.04 118.773 74.6984 118.837 74.3568L116.871 73.9893C116.816 74.2808 116.75 74.5727 116.672 74.8645L118.604 75.381ZM119.063 72.2698C119.085 71.5624 119.05 70.8612 118.963 70.1719L116.979 70.4243C117.053 71.0111 117.082 71.6079 117.064 72.2103L119.063 72.2698ZM118.537 68.1153C118.341 67.44 118.093 66.783 117.797 66.1503L115.985 66.9997C116.238 67.5386 116.449 68.0982 116.616 68.6734L118.537 68.1153ZM116.76 64.3242C116.367 63.7443 115.93 63.1946 115.45 62.6814L113.988 64.0475C114.396 64.4837 114.768 64.9511 115.102 65.4447L116.76 64.3242ZM113.896 61.2643C113.345 60.8373 112.757 60.4512 112.135 60.1119L111.176 61.8672C111.704 62.1549 112.202 62.4822 112.669 62.8444L113.896 61.2643ZM110.214 59.255C109.886 59.1389 109.551 59.0348 109.209 58.9434L108.691 60.8753C108.982 60.9531 109.267 61.0416 109.546 61.1402L110.214 59.255Z" fill="url(#paint0_linear_1042_63610)" mask="url(#path-2-inside-1_1042_63610)"/>
</g>
</g>
<defs>
<filter id="filter0_di_1042_63610" x="9.6259" y="0.178638" width="112.092" height="112.9" filterUnits="userSpaceOnUse" color-interpolation-filters="sRGB">
<feFlood flood-opacity="0" result="BackgroundImageFix"/>
<feColorMatrix in="SourceAlpha" type="matrix" values="0 0 0 0 0 0 0 0 0 0 0 0 0 0 0 0 0 0 127 0" result="hardAlpha"/>
<feOffset dx="1.07322" dy="1.07322"/>
<feGaussianBlur stdDeviation="1.28787"/>
<feComposite in2="hardAlpha" operator="out"/>
<feColorMatrix type="matrix" values="0 0 0 0 1 0 0 0 0 0.803083 0 0 0 0 0.420833 0 0 0 1 0"/>
<feBlend mode="normal" in2="BackgroundImageFix" result="effect1_dropShadow_1042_63610"/>
<feBlend mode="normal" in="SourceGraphic" in2="effect1_dropShadow_1042_63610" result="shape"/>
<feColorMatrix in="SourceAlpha" type="matrix" values="0 0 0 0 0 0 0 0 0 0 0 0 0 0 0 0 0 0 127 0" result="hardAlpha"/>
<feOffset dx="2.14645" dy="2.14645"/>
<feGaussianBlur stdDeviation="1.28787"/>
<feComposite in2="hardAlpha" operator="arithmetic" k2="-1" k3="1"/>
<feColorMatrix type="matrix" values="0 0 0 0 1 0 0 0 0 1 0 0 0 0 1 0 0 0 0.4 0"/>
<feBlend mode="normal" in2="shape" result="effect2_innerShadow_1042_63610"/>
</filter>
<linearGradient id="paint0_linear_1042_63610" x1="120.002" y1="66.3013" x2="23.1354" y2="40.3374" gradientUnits="userSpaceOnUse">
<stop stop-color="#FF9F10"/>
<stop offset="1" stop-color="#FFCD6B"/>
</linearGradient>
</defs>
</svg>
