<svg width="24" height="24" viewBox="0 0 24 24" fill="none" xmlns="http://www.w3.org/2000/svg">
<path d="M22.7404 9.41621V22.2222C22.7404 22.3646 22.6846 22.498 22.5902 22.594C22.4962 22.6894 22.3721 22.7401 22.2461 22.7401H16.3138C16.1877 22.7401 16.0637 22.6894 15.9697 22.594C15.8752 22.498 15.8194 22.3646 15.8194 22.2222V17.7025C15.8194 17.0457 15.5627 16.4127 15.1009 15.9435C14.6386 15.4739 14.0083 15.2072 13.3476 15.2072H10.3815C9.72088 15.2072 9.09052 15.4739 8.62821 15.9435C8.16642 16.4127 7.90972 17.0457 7.90972 17.7025V22.2222C7.90972 22.3646 7.85392 22.498 7.75945 22.594C7.66549 22.6894 7.54141 22.7401 7.41536 22.7401H1.48307C1.35702 22.7401 1.23293 22.6894 1.13898 22.594C1.04451 22.498 0.988708 22.3646 0.988708 22.2222V9.41621C0.988708 9.33323 1.00776 9.25198 1.04365 9.17906C1.07952 9.10619 1.13085 9.0443 1.19242 8.99739L11.5739 1.08777C11.6595 1.02257 11.7615 0.988708 11.8646 0.988708C11.9676 0.988708 12.0696 1.02257 12.1552 1.08777L22.5367 8.99739C22.5983 9.04429 22.6496 9.10619 22.6855 9.17906C22.7214 9.25198 22.7404 9.33323 22.7404 9.41621Z" fill="#5085FF" stroke="#5085FF" stroke-width="1.97742" stroke-linecap="round" stroke-linejoin="round"/>
</svg>
