<svg width="22" height="23" viewBox="0 0 22 23" fill="none" xmlns="http://www.w3.org/2000/svg">
<path d="M15.3246 6.21191C15.3246 8.67031 13.3338 10.6611 10.8755 10.6611C8.41721 10.6611 6.42645 8.67031 6.42645 6.21191C6.42645 3.75351 8.41721 1.76274 10.8755 1.76274C13.3338 1.76274 15.3246 3.75351 15.3246 6.21191ZM0.988693 19.8066C0.988693 19.2657 1.25181 18.7187 1.85944 18.1579C2.47378 17.5909 3.37205 17.0789 4.44429 16.6494C6.59036 15.7896 9.18425 15.3574 10.8755 15.3574C12.5668 15.3574 15.1607 15.7896 17.3067 16.6494C18.379 17.0789 19.2772 17.5909 19.8916 18.1579C20.4992 18.7187 20.7623 19.2657 20.7623 19.8066V21.166C20.7623 21.3677 20.5932 21.5368 20.3916 21.5368H1.35944C1.15781 21.5368 0.988693 21.3677 0.988693 21.166V19.8066Z" fill="#ABADB3" stroke="#ABADB3" stroke-width="1.97739"/>
</svg>
