<svg width="33" height="30" viewBox="0 0 33 30" fill="none" xmlns="http://www.w3.org/2000/svg">
<path fill-rule="evenodd" clip-rule="evenodd" d="M20.0734 4.18004C20.0734 4.90702 20.5677 5.71965 21.2946 5.71965H26.5542C27.2265 5.71965 27.7715 6.26467 27.7715 6.93699V12.1965C27.7715 12.9235 28.5842 13.4178 29.3112 13.4178C31.1333 13.4178 32.6104 14.8949 32.6104 16.7169C32.6104 18.539 31.1333 20.0161 29.3112 20.0161C28.5842 20.0161 27.7715 20.5104 27.7715 21.2373V26.4969C27.7715 27.1692 27.2265 27.7142 26.5542 27.7142H21.2946C20.5677 27.7142 20.0734 26.9016 20.0734 26.1746C20.0734 24.3525 18.5963 22.8754 16.7742 22.8754C14.9522 22.8754 13.4751 24.3525 13.4751 26.1746C13.4751 26.9016 12.9808 27.7142 12.2539 27.7142H6.99431C6.322 27.7142 5.77698 27.1692 5.77698 26.4969V21.2374C5.77698 20.5104 4.96432 20.0161 4.23732 20.0161C2.41523 20.0161 0.938139 18.539 0.938139 16.7169C0.938139 14.8949 2.41523 13.4178 4.23732 13.4178C4.96432 13.4178 5.77698 12.9235 5.77698 12.1965V6.93699C5.77698 6.26467 6.322 5.71965 6.99431 5.71965L12.2539 5.71965C12.9808 5.71965 13.4751 4.90702 13.4751 4.18004C13.4751 2.35795 14.9522 0.880859 16.7742 0.880859C18.5963 0.880859 20.0734 2.35795 20.0734 4.18004Z" fill="url(#paint0_linear_441_5877)"/>
<path d="M16.1469 18.7062V12.417H16.0491L14.1265 13.753V12.2758L16.1523 10.8691H17.7871V18.7062H16.1469Z" fill="white"/>
<defs>
<linearGradient id="paint0_linear_441_5877" x1="27.1557" y1="27.4691" x2="5.65129" y2="5.59393" gradientUnits="userSpaceOnUse">
<stop stop-color="#FF9F10"/>
<stop offset="1" stop-color="#FFCD6B"/>
</linearGradient>
</defs>
</svg>
