<svg width="33" height="30" viewBox="0 0 33 30" fill="none" xmlns="http://www.w3.org/2000/svg">
<path fill-rule="evenodd" clip-rule="evenodd" d="M20.0734 3.93022C20.0734 4.6572 20.5677 5.46984 21.2946 5.46984H26.5542C27.2265 5.46984 27.7715 6.01486 27.7715 6.68717V11.9467C27.7715 12.6737 28.5842 13.1679 29.3112 13.1679C31.1333 13.1679 32.6104 14.645 32.6104 16.4671C32.6104 18.2892 31.1333 19.7663 29.3112 19.7663C28.5842 19.7663 27.7715 20.2605 27.7715 20.9875V26.247C27.7715 26.9194 27.2265 27.4644 26.5542 27.4644H21.2946C20.5677 27.4644 20.0734 26.6518 20.0734 25.9248C20.0734 24.1027 18.5963 22.6256 16.7742 22.6256C14.9522 22.6256 13.4751 24.1027 13.4751 25.9248C13.4751 26.6518 12.9808 27.4644 12.2539 27.4644H6.99431C6.322 27.4644 5.77698 26.9194 5.77698 26.247V20.9875C5.77698 20.2605 4.96432 19.7663 4.23732 19.7663C2.41523 19.7663 0.938139 18.2892 0.938139 16.4671C0.938139 14.645 2.41523 13.1679 4.23732 13.1679C4.96432 13.1679 5.77698 12.6737 5.77698 11.9467V6.68717C5.77698 6.01486 6.322 5.46984 6.99431 5.46984L12.2539 5.46984C12.9808 5.46984 13.4751 4.6572 13.4751 3.93022C13.4751 2.10814 14.9522 0.631042 16.7742 0.631042C18.5963 0.631042 20.0734 2.10814 20.0734 3.93022Z" fill="url(#paint0_linear_441_5880)"/>
<path d="M14.2297 18.4565V17.354L16.7552 14.8611C17.8577 13.7911 18.1564 13.3947 18.1564 12.8461V12.8298C18.1564 12.1618 17.7002 11.6947 16.9507 11.6947C16.1849 11.6947 15.6581 12.2053 15.6581 12.9493V12.9765H14.1428L14.1374 12.9547C14.1374 11.4503 15.3105 10.4184 17.0267 10.4184C18.6398 10.4184 19.7695 11.3417 19.7695 12.6941V12.7103C19.7695 13.6011 19.3078 14.3397 17.8794 15.6594L16.4293 17.0118V17.1367H19.8835V18.4565H14.2297Z" fill="white"/>
<defs>
<linearGradient id="paint0_linear_441_5880" x1="27.1557" y1="27.2193" x2="5.65129" y2="5.34411" gradientUnits="userSpaceOnUse">
<stop stop-color="#FFCD6B"/>
<stop offset="1" stop-color="#FFEBA5"/>
</linearGradient>
</defs>
</svg>
