<svg width="347" height="68" viewBox="0 0 347 68" fill="none" xmlns="http://www.w3.org/2000/svg">
<g clip-path="url(#clip0_646_18468)" filter="url(#filter0_d_646_18468)">
<rect width="343" height="64" fill="white"/>
<g opacity="0.3" filter="url(#filter1_d_646_18468)">
<g filter="url(#filter2_i_646_18468)">
<path fill-rule="evenodd" clip-rule="evenodd" d="M-17.7662 22.9138C-18.9631 22.4281 -19.5397 21.0641 -19.054 19.8672L-8.76659 -5.48541C-8.28092 -6.68231 -6.91693 -7.25888 -5.72003 -6.77321L19.9702 3.6512C21.1671 4.13687 21.7437 5.50086 21.258 6.69776L18.5993 13.25C18.1959 14.2441 16.8136 14.4716 15.8195 14.0682V14.0682C13.3322 13.059 10.5069 14.2345 9.50891 16.6938C8.51098 19.1532 9.71836 21.9651 12.2057 22.9743V22.9743C13.1998 23.3777 14.0327 24.5041 13.6293 25.4982L10.9706 32.0504C10.4849 33.2473 9.12093 33.8238 7.92403 33.3382L1.22699 30.6207C0.247448 30.2232 0.0284298 28.855 0.4259 27.8754V27.8754C1.42384 25.4161 0.216455 22.6042 -2.27086 21.5949C-4.75818 20.5856 -7.58354 21.7611 -8.58148 24.2205V24.2205C-8.97895 25.2 -10.0895 26.0288 -11.069 25.6313L-17.7662 22.9138Z" fill="url(#paint0_linear_646_18468)"/>
</g>
<g filter="url(#filter3_i_646_18468)">
<path fill-rule="evenodd" clip-rule="evenodd" d="M12.3434 34.6959C11.1465 34.2102 10.5699 32.8462 11.0556 31.6493L13.7143 25.0971C14.1177 24.103 13.2847 22.9766 12.2906 22.5732V22.5732C9.80331 21.5639 8.59592 18.752 9.59386 16.2927C10.5918 13.8333 13.4172 12.6578 15.9045 13.6671V13.6671C16.8986 14.0705 18.2809 13.843 18.6843 12.8489L21.343 6.2967C21.8287 5.0998 23.1926 4.52323 24.3895 5.0089L50.0798 15.4333C51.2767 15.919 51.8532 17.283 51.3676 18.4799L41.0802 43.8325C40.5945 45.0294 39.2305 45.606 38.0336 45.1203L31.3364 42.4027C30.3569 42.0053 30.1378 40.637 30.5353 39.6574V39.6574C31.5332 37.1981 30.3259 34.3862 27.8385 33.3769C25.3512 32.3676 22.5259 33.5431 21.5279 36.0025V36.0025C21.1305 36.982 20.0199 37.8108 19.0404 37.4134L12.3434 34.6959Z" fill="url(#paint1_linear_646_18468)"/>
</g>
<g filter="url(#filter4_i_646_18468)">
<path fill-rule="evenodd" clip-rule="evenodd" d="M-17.8618 23.1555C-19.0587 22.6699 -20.4227 23.2464 -20.9084 24.4433L-31.1958 49.796C-31.6815 50.9929 -31.1049 52.3568 -29.908 52.8425L-4.21778 63.2669C-3.02088 63.7526 -1.65689 63.176 -1.17122 61.9791L1.48751 55.4269C1.89086 54.4329 1.05802 53.3065 0.0639955 52.9032V52.9032C-2.42332 51.8939 -3.63071 49.082 -2.63277 46.6226C-1.63483 44.1633 1.19053 42.9878 3.67785 43.9971V43.9971C4.67187 44.4004 6.05408 44.1729 6.45743 43.1788L9.11619 36.6265C9.60186 35.4296 9.0253 34.0656 7.8284 33.5799L1.13131 30.8624C0.151751 30.465 -0.0672674 29.0967 0.330211 28.1171V28.1171C1.32815 25.6578 0.120767 22.8459 -2.36655 21.8366C-4.85387 20.8273 -7.67923 22.0028 -8.67717 24.4622V24.4622C-9.07464 25.4417 -10.1852 26.2705 -11.1647 25.873L-17.8618 23.1555Z" fill="url(#paint2_linear_646_18468)"/>
</g>
<g filter="url(#filter5_i_646_18468)">
<path fill-rule="evenodd" clip-rule="evenodd" d="M0.146826 52.5003C1.14087 52.9037 1.97374 54.0301 1.57039 55.0241L-1.08832 61.5763C-1.57399 62.7732 -0.997427 64.1372 0.199472 64.6229L25.8897 75.0473C27.0866 75.5329 28.4506 74.9564 28.9363 73.7595L39.2237 48.4069C39.7094 47.21 39.1328 45.846 37.9359 45.3603L31.2388 42.6428C30.2592 42.2453 30.0402 40.877 30.4377 39.8975V39.8975C31.4356 37.4381 30.2283 34.6262 27.7409 33.6169C25.2536 32.6077 22.4283 33.7832 21.4303 36.2425V36.2425C21.0328 37.2221 19.9223 38.0509 18.9427 37.6534L12.2456 34.9359C11.0488 34.4502 9.68476 35.0268 9.19909 36.2237L6.54033 42.776C6.13698 43.7701 4.75472 43.9976 3.76068 43.5942V43.5942C1.27336 42.585 -1.552 43.7605 -2.54994 46.2198C-3.54787 48.6792 -2.34049 51.491 0.146826 52.5003V52.5003Z" fill="url(#paint3_linear_646_18468)"/>
</g>
</g>
</g>
<defs>
<filter id="filter0_d_646_18468" x="0" y="0" width="347" height="68" filterUnits="userSpaceOnUse" color-interpolation-filters="sRGB">
<feFlood flood-opacity="0" result="BackgroundImageFix"/>
<feColorMatrix in="SourceAlpha" type="matrix" values="0 0 0 0 0 0 0 0 0 0 0 0 0 0 0 0 0 0 127 0" result="hardAlpha"/>
<feOffset dx="2" dy="2"/>
<feGaussianBlur stdDeviation="1"/>
<feComposite in2="hardAlpha" operator="out"/>
<feColorMatrix type="matrix" values="0 0 0 0 0.313726 0 0 0 0 0.521569 0 0 0 0 1 0 0 0 0.1 0"/>
<feBlend mode="normal" in2="BackgroundImageFix" result="effect1_dropShadow_646_18468"/>
<feBlend mode="normal" in="SourceGraphic" in2="effect1_dropShadow_646_18468" result="shape"/>
</filter>
<filter id="filter1_d_646_18468" x="-39.8616" y="-13.4209" width="101.895" height="101.116" filterUnits="userSpaceOnUse" color-interpolation-filters="sRGB">
<feFlood flood-opacity="0" result="BackgroundImageFix"/>
<feColorMatrix in="SourceAlpha" type="matrix" values="0 0 0 0 0 0 0 0 0 0 0 0 0 0 0 0 0 0 127 0" result="hardAlpha"/>
<feOffset dx="1" dy="3"/>
<feGaussianBlur stdDeviation="2.5"/>
<feComposite in2="hardAlpha" operator="out"/>
<feColorMatrix type="matrix" values="0 0 0 0 0.313726 0 0 0 0 0.521569 0 0 0 0 1 0 0 0 0.5 0"/>
<feBlend mode="normal" in2="BackgroundImageFix" result="effect1_dropShadow_646_18468"/>
<feBlend mode="normal" in="SourceGraphic" in2="effect1_dropShadow_646_18468" result="shape"/>
</filter>
<filter id="filter2_i_646_18468" x="-19.2263" y="-6.94556" width="41.7169" height="41.5164" filterUnits="userSpaceOnUse" color-interpolation-filters="sRGB">
<feFlood flood-opacity="0" result="BackgroundImageFix"/>
<feBlend mode="normal" in="SourceGraphic" in2="BackgroundImageFix" result="shape"/>
<feColorMatrix in="SourceAlpha" type="matrix" values="0 0 0 0 0 0 0 0 0 0 0 0 0 0 0 0 0 0 127 0" result="hardAlpha"/>
<feOffset dx="1.06038" dy="1.06038"/>
<feGaussianBlur stdDeviation="0.636228"/>
<feComposite in2="hardAlpha" operator="arithmetic" k2="-1" k3="1"/>
<feColorMatrix type="matrix" values="0 0 0 0 1 0 0 0 0 1 0 0 0 0 1 0 0 0 0.5 0"/>
<feBlend mode="normal" in2="shape" result="effect1_innerShadow_646_18468"/>
</filter>
<filter id="filter3_i_646_18468" x="9.24365" y="4.83667" width="43.3565" height="41.5162" filterUnits="userSpaceOnUse" color-interpolation-filters="sRGB">
<feFlood flood-opacity="0" result="BackgroundImageFix"/>
<feBlend mode="normal" in="SourceGraphic" in2="BackgroundImageFix" result="shape"/>
<feColorMatrix in="SourceAlpha" type="matrix" values="0 0 0 0 0 0 0 0 0 0 0 0 0 0 0 0 0 0 127 0" result="hardAlpha"/>
<feOffset dx="1.06038" dy="1.06038"/>
<feGaussianBlur stdDeviation="0.636228"/>
<feComposite in2="hardAlpha" operator="arithmetic" k2="-1" k3="1"/>
<feColorMatrix type="matrix" values="0 0 0 0 1 0 0 0 0 1 0 0 0 0 1 0 0 0 0.5 0"/>
<feBlend mode="normal" in2="shape" result="effect1_innerShadow_646_18468"/>
</filter>
<filter id="filter4_i_646_18468" x="-31.3682" y="21.4749" width="41.7169" height="43.0247" filterUnits="userSpaceOnUse" color-interpolation-filters="sRGB">
<feFlood flood-opacity="0" result="BackgroundImageFix"/>
<feBlend mode="normal" in="SourceGraphic" in2="BackgroundImageFix" result="shape"/>
<feColorMatrix in="SourceAlpha" type="matrix" values="0 0 0 0 0 0 0 0 0 0 0 0 0 0 0 0 0 0 127 0" result="hardAlpha"/>
<feOffset dx="1.06038" dy="1.06038"/>
<feGaussianBlur stdDeviation="0.636228"/>
<feComposite in2="hardAlpha" operator="arithmetic" k2="-1" k3="1"/>
<feColorMatrix type="matrix" values="0 0 0 0 1 0 0 0 0 1 0 0 0 0 1 0 0 0 0.5 0"/>
<feBlend mode="normal" in2="shape" result="effect1_innerShadow_646_18468"/>
</filter>
<filter id="filter5_i_646_18468" x="-2.90015" y="33.2554" width="43.3565" height="43.0245" filterUnits="userSpaceOnUse" color-interpolation-filters="sRGB">
<feFlood flood-opacity="0" result="BackgroundImageFix"/>
<feBlend mode="normal" in="SourceGraphic" in2="BackgroundImageFix" result="shape"/>
<feColorMatrix in="SourceAlpha" type="matrix" values="0 0 0 0 0 0 0 0 0 0 0 0 0 0 0 0 0 0 127 0" result="hardAlpha"/>
<feOffset dx="1.06038" dy="1.06038"/>
<feGaussianBlur stdDeviation="0.636228"/>
<feComposite in2="hardAlpha" operator="arithmetic" k2="-1" k3="1"/>
<feColorMatrix type="matrix" values="0 0 0 0 1 0 0 0 0 1 0 0 0 0 1 0 0 0 0.5 0"/>
<feBlend mode="normal" in2="shape" result="effect1_innerShadow_646_18468"/>
</filter>
<linearGradient id="paint0_linear_646_18468" x1="18.5089" y1="9.41515" x2="-14.4876" y2="26.0012" gradientUnits="userSpaceOnUse">
<stop stop-color="#DDEBFF"/>
<stop offset="0.0677083" stop-color="#DDEBFF"/>
<stop offset="1" stop-color="#6392FF"/>
</linearGradient>
<linearGradient id="paint1_linear_646_18468" x1="48.3074" y1="21.0711" x2="14.5695" y2="42.3385" gradientUnits="userSpaceOnUse">
<stop stop-color="#DDEBFF"/>
<stop offset="0.0677083" stop-color="#DDEBFF"/>
<stop offset="1" stop-color="#6392FF"/>
</linearGradient>
<linearGradient id="paint2_linear_646_18468" x1="-0.762276" y1="56.9136" x2="-17.944" y2="19.772" gradientUnits="userSpaceOnUse">
<stop stop-color="#DDEBFF"/>
<stop offset="0.0677083" stop-color="#DDEBFF"/>
<stop offset="1" stop-color="#6392FF"/>
</linearGradient>
<linearGradient id="paint3_linear_646_18468" x1="29.0342" y1="68.5678" x2="14.2608" y2="26.0035" gradientUnits="userSpaceOnUse">
<stop stop-color="#DDEBFF"/>
<stop offset="0.0677083" stop-color="#DDEBFF"/>
<stop offset="1" stop-color="#6392FF"/>
</linearGradient>
<clipPath id="clip0_646_18468">
<rect width="343" height="64" fill="white"/>
</clipPath>
</defs>
</svg>
